<svg width="74" height="75" viewBox="0 0 74 75" fill="none" xmlns="http://www.w3.org/2000/svg">
<path fill-rule="evenodd" clip-rule="evenodd" d="M7.06136 15.4605C2.61998 21.6472 0 29.2635 0 37.5C0 56.7189 14.265 72.561 32.6492 74.7435C32.7887 74.77 32.9291 74.7857 33.0692 74.7909C34.3608 74.9291 35.6722 75 37 75C57.4345 75 74 58.2107 74 37.5C74 32.2399 72.9314 27.2327 71.0023 22.6893C70.9572 22.5606 70.9035 22.4362 70.8417 22.3168C65.0913 9.17042 52.1023 0 37 0C24.8946 0 14.147 5.89198 7.39672 15.0008C7.26904 15.1435 7.157 15.2977 7.06136 15.4605ZM9.39791 22.5123C7.0335 26.9759 5.69231 32.0792 5.69231 37.5C5.69231 53.1839 16.9196 66.2102 31.673 68.7733L40.1194 53.9325C39.1093 54.1283 38.0665 54.2307 37.0001 54.2307C30.6388 54.2307 25.1178 50.5839 22.3616 45.2405L9.39791 22.5123ZM12.9402 17.1957L21.3966 32.0249C23.6341 25.4736 29.775 20.7692 37.0001 20.7692L63.607 20.7692C58.0829 11.7641 48.2322 5.76923 37 5.76923C27.3295 5.76923 18.6831 10.213 12.9402 17.1957ZM66.3893 26.5384H49.4717C51.986 29.4744 53.5078 33.3071 53.5078 37.5C53.5078 40.7947 52.5682 43.8669 50.9457 46.4565L37.9929 69.2151C54.8242 68.6836 68.3077 54.6877 68.3077 37.5C68.3077 33.6472 67.6302 29.9548 66.3893 26.5384ZM37.0001 26.5384C31.0269 26.5384 26.1847 31.4461 26.1847 37.5C26.1847 43.5539 31.0269 48.4615 37.0001 48.4615C42.9733 48.4615 47.8155 43.5539 47.8155 37.5C47.8155 31.4461 42.9733 26.5384 37.0001 26.5384Z" fill="#8CC0DE"/>
</svg>
