<svg width="470" height="470" viewBox="0 0 470 470" fill="black" xmlns="http://www.w3.org/2000/svg">
<path d="M146.549 102.998C124.138 105.503 106.198 123.191 103.605 145.362C96.6396 204.918 96.6396 265.082 103.605 324.638C106.198 346.809 124.138 364.497 146.549 367.002C204.846 373.517 265.155 373.517 323.451 367.002C345.863 364.497 363.802 346.809 366.395 324.638C371.4 281.846 372.809 238.739 370.622 195.769C370.565 194.66 370.98 193.577 371.765 192.792L392.108 172.449C394.463 170.094 398.486 171.567 398.736 174.887C402.575 225.9 401.52 277.189 395.571 328.051C391.364 364.024 362.481 392.198 326.714 396.195C266.249 402.953 203.751 402.953 143.287 396.195C107.52 392.198 78.6366 364.024 74.4291 328.051C67.1983 266.227 67.1983 203.772 74.4291 141.949C78.6366 105.976 107.52 77.8021 143.287 73.8047C203.751 67.0469 266.249 67.0469 326.714 73.8047C339.311 75.2126 351.054 79.6194 361.166 86.3098C363.156 87.6262 363.353 90.4235 361.666 92.1105L345.943 107.834C344.657 109.12 342.662 109.336 341.059 108.477C335.705 105.608 329.755 103.702 323.451 102.998C265.155 96.4825 204.846 96.4825 146.549 102.998Z" fill="white"/>
<path d="M411.844 118.094C417.58 112.358 417.58 103.059 411.844 97.3227C406.108 91.5869 396.809 91.5869 391.073 97.3227L225.208 263.187L176.844 214.823C171.108 209.087 161.809 209.087 156.073 214.823C150.337 220.559 150.337 229.858 156.073 235.594L214.823 294.344C220.559 300.08 229.858 300.08 235.594 294.344L411.844 118.094Z" fill="white"/>
</svg>
