<svg width="96" height="96" viewBox="0 0 96 96" fill="none" xmlns="http://www.w3.org/2000/svg">
<path fill-rule="evenodd" clip-rule="evenodd" d="M51.7276 24.8333C45.5263 24.8333 40.1623 28.4426 37.6325 33.6885C36.9523 35.0989 35.3017 35.749 33.8424 35.1811C31.8794 34.4173 29.7416 33.9968 27.4984 33.9968C17.8325 33.9968 9.99678 41.8325 9.99678 51.4984C9.99678 61.1643 17.8325 69 27.4984 69H74.093C80.6708 69 86.0032 63.6676 86.0032 57.0897C86.0032 50.5119 80.6708 45.1795 74.093 45.1795C73.0226 45.1795 71.9898 45.3199 71.0096 45.5817C70.0488 45.8383 69.0232 45.6021 68.2714 44.951C67.5197 44.2999 67.1394 43.3186 67.2562 42.331C67.3282 41.7222 67.3654 41.1016 67.3654 40.4711C67.3654 31.8345 60.3641 24.8333 51.7276 24.8333ZM33.5201 28.7761C37.367 22.7989 44.0819 18.8333 51.7276 18.8333C63.2496 18.8333 72.6683 27.839 73.3284 39.1956C73.5821 39.1849 73.8369 39.1795 74.093 39.1795C83.9845 39.1795 92.0032 47.1982 92.0032 57.0897C92.0032 66.9813 83.9845 75 74.093 75H27.4984C14.5188 75 3.99678 64.478 3.99678 51.4984C3.99678 38.5188 14.5188 27.9968 27.4984 27.9968C29.577 27.9968 31.5959 28.2673 33.5201 28.7761Z" fill="#F8AF7F"/>
</svg>
