<svg width="96" height="96" viewBox="0 0 96 96" fill="none" xmlns="http://www.w3.org/2000/svg">
<path fill-rule="evenodd" clip-rule="evenodd" d="M85.8195 21.663C86.5883 22.8275 86.4602 24.4099 85.435 25.435L48.6655 62.2046C48.2886 62.5815 47.818 62.8512 47.3023 62.9859L31.9886 66.9859C31.4892 67.1163 30.9743 67.1137 30.4906 66.9906C29.9763 66.8597 29.4972 66.5926 29.1092 66.2046C28.3561 65.4515 28.0587 64.3555 28.3279 63.3251L32.3279 48.0114C32.4457 47.5601 32.6669 47.1144 32.9729 46.7648L69.8787 9.87868C70.2017 9.55562 70.5909 9.31384 71.0144 9.16653C71.3284 9.0573 71.6612 9 72 9C72.7957 9 73.5587 9.31607 74.1213 9.87868L85.435 21.1924C85.5815 21.3388 85.7096 21.4967 85.8195 21.663ZM79.0711 23.3137L72 16.2426L37.9273 50.3153L35.4274 59.8863L44.9985 57.3863L79.0711 23.3137Z" fill="#F8AF7F"/>
<path d="M78.5654 68.6413C79.659 59.2908 80.007 49.8751 79.6093 40.4832C79.5903 40.0335 79.7594 39.5959 80.0777 39.2777L84.011 35.3443C84.4946 34.8608 85.3209 35.1678 85.3661 35.8502C86.1059 47.0088 85.8254 58.2181 84.5248 69.3382C83.5786 77.4284 77.0812 83.7684 69.033 84.6679C55.1667 86.2177 40.8334 86.2177 26.9671 84.6679C18.9188 83.7684 12.4215 77.4284 11.4753 69.3383C9.81715 55.1611 9.81715 40.8389 11.4753 26.6617C12.4215 18.5716 18.9189 12.2316 26.9671 11.332C37.4861 10.1564 48.2738 9.87259 58.9226 10.4806C59.6089 10.5198 59.9218 11.3503 59.4357 11.8364L55.4655 15.8066C55.1507 16.1214 54.719 16.2904 54.2741 16.2754C45.3684 15.9751 36.4022 16.3149 27.6335 17.2949C22.3131 17.8896 18.0511 22.088 17.4347 27.3587C15.8307 41.0728 15.8307 54.9271 17.4347 68.6413C18.0511 73.912 22.3131 78.1104 27.6335 78.705C41.0569 80.2053 54.9432 80.2053 68.3666 78.705C73.687 78.1104 77.949 73.912 78.5654 68.6413Z" fill="#F8AF7F"/>
</svg>
