<svg width="96" height="96" viewBox="0 0 96 96" fill="none" xmlns="http://www.w3.org/2000/svg">
<path d="M52 60C49.7909 60 48 61.7909 48 64C48 66.2092 49.7909 68 52 68C54.2091 68 56 66.2092 56 64C56 61.7909 54.2091 60 52 60Z" fill="#F8AF7F"/>
<path d="M40 68C37.7909 68 36 69.7909 36 72C36 74.2092 37.7909 76 40 76C42.2091 76 44 74.2092 44 72C44 69.7909 42.2091 68 40 68Z" fill="#F8AF7F"/>
<path fill-rule="evenodd" clip-rule="evenodd" d="M57.9726 13L57.9608 13H38.0392L38.0274 13H34C32.3431 13 31 14.3432 31 16C31 17.6569 32.3431 19 34 19H35.0392V39.348C35.0392 45.1655 33.2896 50.8485 30.0176 55.6587L17.6424 73.8515C14.4998 78.4715 17.3967 84.7761 22.9492 85.4007C39.5972 87.2736 56.4028 87.2736 73.0508 85.4007C78.6033 84.7761 81.5002 78.4715 78.3576 73.8515L65.9824 55.6587C62.7104 50.8485 60.9608 45.1655 60.9608 39.348V19H62C63.6569 19 65 17.6569 65 16C65 14.3432 63.6569 13 62 13H57.9726ZM23.62 79.4383C39.8222 81.2611 56.1778 81.2611 72.38 79.4383C73.4436 79.3187 73.9985 78.1111 73.3965 77.2261L61.0214 59.0333C60.1403 57.738 59.3507 56.3903 58.6555 55H37.3444C36.6493 56.3903 35.8597 57.738 34.9786 59.0333L22.6035 77.2261C22.0015 78.1111 22.5564 79.3187 23.62 79.4383ZM39.682 49H56.318C55.4225 45.8789 54.9608 42.6312 54.9608 39.348V19L41.0392 19V39.348C41.0392 42.6312 40.5775 45.8789 39.682 49Z" fill="#F8AF7F"/>
</svg>
