<svg width="326" height="301" viewBox="0 0 326 301" fill="none" xmlns="http://www.w3.org/2000/svg">
<path fill-rule="evenodd" clip-rule="evenodd" d="M3.34544 77.7762C-1.51805 129.684 -1.30125 189.551 5.46635 241.248C9.21102 269.853 29.5347 291.783 54.6221 294.288L80.8408 296.906C135.51 302.365 190.489 302.365 245.159 296.906L271.378 294.288C296.465 291.783 316.789 269.853 320.533 241.248C327.301 189.551 327.518 129.687 322.655 77.7793C322.026 71.7615 321.319 65.7518 320.533 59.7521C316.789 31.147 296.465 9.21744 271.378 6.71234L245.159 4.09427C190.489 -1.36476 135.51 -1.36476 80.8408 4.09428L54.6221 6.71235C29.5347 9.21745 9.21102 31.147 5.46635 59.7521C4.68108 65.7507 3.97411 71.7594 3.34544 77.7762ZM83.096 33.8954C136.265 28.5863 189.735 28.5862 242.904 33.8954L269.122 36.5135C282.218 37.8212 292.827 49.2684 294.782 64.2004C294.985 65.751 295.182 67.3024 295.374 68.8545L198.831 130.465C176.547 144.686 149.451 144.686 127.167 130.465L30.6253 68.8552C30.8173 67.3029 31.0148 65.7513 31.2179 64.2004C33.1726 49.2684 43.7816 37.8212 56.8773 36.5135L83.096 33.8954ZM298.561 101.041C301.928 146.265 300.669 191.83 294.782 236.8C292.827 251.732 282.218 263.179 269.123 264.487L242.904 267.105C189.735 272.414 136.265 272.414 83.096 267.105L56.8773 264.487C43.7816 263.179 33.1726 251.732 31.2179 236.8C25.331 191.831 24.0713 146.266 27.4388 101.042L114.52 156.614C144.67 175.855 181.329 175.855 211.478 156.614L298.561 101.041Z" fill="#F8AF7F"/>
</svg>
