<svg width="470" height="470" viewBox="0 0 470 470" fill="none" xmlns="http://www.w3.org/2000/svg">
<path fill-rule="evenodd" clip-rule="evenodd" d="M141.979 141.979V139.632C141.979 97.1799 170.72 60.1138 211.834 49.5416C227.031 45.6339 242.969 45.6339 258.166 49.5416C299.28 60.1138 328.021 97.18 328.021 139.632V141.979H357.418C368.605 141.979 378.1 150.184 379.722 161.254L384.005 190.481C392.436 248.026 392.436 306.492 384.005 364.037C379.933 391.826 357.524 413.31 329.587 416.207L317.272 417.484C262.571 423.157 207.429 423.157 152.728 417.484L140.412 416.207C112.476 413.31 90.0671 391.826 85.9953 364.037C77.5639 306.492 77.5639 248.026 85.9953 190.481L90.2777 161.254C91.8996 150.184 101.395 141.979 112.582 141.979H141.979ZM219.15 77.9911C229.547 75.3174 240.453 75.3174 250.85 77.9911C278.981 85.2247 298.646 110.586 298.646 139.632V141.979H171.354V139.632C171.354 110.586 191.019 85.2247 219.15 77.9911ZM141.979 171.354V215.417C141.979 223.528 148.555 230.104 156.667 230.104C164.778 230.104 171.354 223.528 171.354 215.417V171.354H298.646V215.417C298.646 223.528 305.222 230.104 313.333 230.104C321.445 230.104 328.021 223.528 328.021 215.417V171.354H351.513L354.94 194.739C362.958 249.46 362.958 305.057 354.94 359.778C352.816 374.272 341.128 385.478 326.557 386.989L314.242 388.266C261.555 393.73 208.445 393.73 155.758 388.266L143.443 386.989C128.872 385.478 117.184 374.272 115.06 359.778C107.042 305.057 107.042 249.46 115.06 194.739L118.486 171.354H141.979Z" fill="#F68F8F"/>
</svg>
