<?xml version="1.0" encoding="iso-8859-1"?>
<!-- Uploaded to: SVG Repo, www.svgrepo.com, Generator: SVG Repo Mixer Tools -->
<svg height="800px" width="800px" version="1.1" id="Layer_1" xmlns="http://www.w3.org/2000/svg" xmlns:xlink="http://www.w3.org/1999/xlink" 
	 viewBox="0 0 512 512" xml:space="preserve">
<g>
	<path style="fill:#DBE1F1;" d="M208.011,361.739H25.677C12.704,352.51,0,338.419,0,322.783v-44.522
		c0-27.27,38.957-50.087,50.087-50.087h133.565c11.13,0,50.087,22.706,50.087,50.087v44.522
		C233.739,338.376,221.001,352.491,208.011,361.739z"/>
	<path style="fill:#DBE1F1;" d="M25.728,244.87h182.334c12.973-9.229,25.677-23.32,25.677-38.957v-27.937
		c0-22.372-8.682-43.297-24.487-59.103L162.059,71.68c-3.117-3.117-7.346-4.897-11.798-4.897H83.478
		c-4.452,0-8.682,1.781-11.799,4.897l-47.192,47.193C8.682,134.678,0,155.603,0,177.976v27.937
		C0,221.507,12.738,235.621,25.728,244.87z"/>
</g>
<path style="fill:#D0D5E5;" d="M208.062,244.87c12.973-9.229,25.677-23.32,25.677-38.957v-27.937
	c0-22.372-8.682-43.297-24.487-59.103L162.059,71.68c-3.117-3.117-7.346-4.897-11.798-4.897H116.87V244.87H208.062z"/>
<path style="fill:#C4C9D6;" d="M150.261,100.174H83.478c-27.619,0-50.087-22.468-50.087-50.087S55.859,0,83.478,0h66.783
	c27.619,0,50.087,22.468,50.087,50.087S177.88,100.174,150.261,100.174z"/>
<path style="fill:#AEB3BF;" d="M150.261,0H116.87v100.174h33.391c27.619,0,50.087-22.468,50.087-50.087S177.88,0,150.261,0z"/>
<path style="fill:#D0D5E5;" d="M208.011,361.739H116.87V228.174h66.783c11.13,0,50.087,22.706,50.087,50.087v44.522
	C233.739,338.376,221.001,352.491,208.011,361.739z"/>
<path style="fill:#7C84E8;" d="M215.022,361.739H18.668C8.496,370.646,0,382.36,0,395.13v66.783C0,489.516,22.483,512,50.087,512
	h133.565c27.603,0,50.087-22.483,50.087-50.087V395.13C233.739,382.392,225.214,370.662,215.022,361.739z"/>
<path style="fill:#515BE0;" d="M215.022,361.739H116.87V512h66.783c27.603,0,50.087-22.483,50.087-50.087V395.13
	C233.739,382.392,225.214,370.662,215.022,361.739z"/>
<path style="fill:#7C84E8;" d="M486.272,244.87H303.938c-12.973,9.229-25.677,23.32-25.677,38.957v44.522
	c0,27.27,38.957,50.087,50.087,50.087h133.565c11.13,0,50.087-22.706,50.087-50.087v-44.522
	C512,268.232,499.262,254.118,486.272,244.87z"/>
<path style="fill:#E6EBF0;" d="M303.989,244.87h182.334C499.296,235.64,512,221.549,512,205.913v-27.937
	c0-22.372-8.682-43.297-24.487-59.103L440.32,71.68c-3.117-3.117-7.346-4.897-11.798-4.897h-66.783
	c-4.452,0-8.682,1.781-11.799,4.897l-47.192,47.193c-15.804,15.805-24.487,36.73-24.487,59.103v27.937
	C278.261,221.507,290.999,235.621,303.989,244.87z"/>
<path style="fill:#7C84E8;" d="M461.913,345.043H328.348c-11.13,0-50.087,22.706-50.087,50.087v66.783
	c0,27.603,22.483,50.087,50.087,50.087h133.565C489.516,512,512,489.516,512,461.913V395.13
	C512,367.861,473.043,345.043,461.913,345.043z"/>
<path style="fill:#515BE0;" d="M512,395.13v66.783C512,489.516,489.516,512,461.913,512H395.13V345.043h66.783
	C473.043,345.043,512,367.861,512,395.13z"/>
<path style="fill:#D0D5E5;" d="M486.323,244.87C499.296,235.64,512,221.549,512,205.913v-27.937
	c0-22.372-8.682-43.297-24.487-59.103L440.32,71.68c-3.117-3.117-7.346-4.897-11.798-4.897H395.13V244.87H486.323z"/>
<path style="fill:#C4C9D6;" d="M428.522,100.174h-66.783c-27.619,0-50.087-22.468-50.087-50.087S334.12,0,361.739,0h66.783
	c27.619,0,50.087,22.468,50.087,50.087S456.141,100.174,428.522,100.174z"/>
<path style="fill:#AEB3BF;" d="M428.522,0H395.13v100.174h33.391c27.619,0,50.087-22.468,50.087-50.087S456.141,0,428.522,0z"/>
<path style="fill:#515BE0;" d="M486.272,244.87H395.13v133.565h66.783c11.13,0,50.087-22.706,50.087-50.087v-44.522
	C512,268.232,499.262,254.118,486.272,244.87z"/>
</svg>