<?xml version="1.0" encoding="iso-8859-1"?>
<!-- Uploaded to: SVG Repo, www.svgrepo.com, Generator: SVG Repo Mixer Tools -->
<svg height="800px" width="800px" version="1.1" id="Layer_1" xmlns="http://www.w3.org/2000/svg" xmlns:xlink="http://www.w3.org/1999/xlink" 
	 viewBox="0 0 512 512" xml:space="preserve">
<path style="fill:#B2D1D8;" d="M487.325,203.46c-9.692-26.528-39.245-40.256-65.878-30.601l-13.958,5.061l-1.896,0.805
	c-2.652-8.638-7.99-16.342-15.417-21.891L283.412,77.069c-3.746-2.798-8.302-4.312-12.984-4.312h-28.855
	c-4.682,0-9.239,1.513-12.984,4.312l-106.764,79.764c-10.899,8.142-17.313,20.922-17.313,34.493v96.968
	c-0.922,0-1.858,0.148-2.774,0.481l-46.341,16.801c-26.633,9.656-40.412,39.095-30.719,65.623
	c7.588,20.77,27.347,33.693,48.35,33.692c5.824,0,11.746-0.994,17.528-3.09l13.958-5.061V460.8
	c0,23.812,19.378,43.116,43.283,43.116h216.413c23.904,0,43.283-19.304,43.283-43.116V286.891l49.115-17.808
	C483.237,259.428,497.017,229.988,487.325,203.46z M104.51,379.535l-19.508,7.073c-18.224,6.606-38.442-2.786-45.074-20.937
	c-6.632-18.152,2.796-38.294,21.018-44.901l43.565-15.795v74.56H104.51z M451.053,253.889l-43.565,15.795v-75.086
	c0.922,0,1.858-0.148,2.776-0.48l16.733-6.066c18.223-6.609,38.442,2.785,45.074,20.937
	C478.704,227.14,469.275,247.283,451.053,253.889z"/>
<path style="fill:#FC8059;" d="M407.489,191.326v3.272v75.086L104.51,379.535v-74.559v-16.68v-96.97
	c0-13.571,6.415-26.35,17.313-34.493l106.764-79.764c3.746-2.798,8.302-4.312,12.984-4.312h28.855c4.682,0,9.239,1.513,12.984,4.312
	l106.764,79.764C401.075,164.976,407.489,177.756,407.489,191.326z M104.51,460.8c0,23.812,19.378,43.116,43.283,43.116h216.413
	c23.904,0,43.283-19.304,43.283-43.116V286.891L104.51,396.742V460.8z"/>
<path style="fill:#BF5243;" d="M277.641,169.768c0,11.906-9.689,21.558-21.641,21.558s-21.641-9.651-21.641-21.558
	s9.689-21.558,21.641-21.558S277.641,157.862,277.641,169.768z"/>
<path style="fill:#DCF3F9;" d="M439.951,309.895c0,47.625-38.757,86.232-86.566,86.232s-86.566-38.607-86.566-86.232
	s38.757-86.232,86.566-86.232S439.951,262.27,439.951,309.895z"/>
<path style="fill:#84A7B7;" d="M396.668,309.895c0,23.812-19.378,43.116-43.283,43.116s-43.283-19.304-43.283-43.116
	c0-23.812,19.378-43.116,43.283-43.116S396.668,286.083,396.668,309.895z"/>
<path style="fill:#4C4C4C;" d="M353.395,258.695c-28.326,0-51.371,22.969-51.371,51.2c0,28.231,23.044,51.2,51.371,51.2
	c28.327,0,51.371-22.969,51.371-51.2C404.767,281.664,381.722,258.695,353.395,258.695z M353.395,344.926
	c-19.412,0-35.204-15.716-35.204-35.032s15.792-35.032,35.204-35.032s35.204,15.716,35.204,35.032S372.807,344.926,353.395,344.926z
	 M487.314,215.235c-9.689-26.516-39.218-40.24-65.829-30.594l-6.095,2.21c-1.284-14.375-8.691-27.775-20.361-36.493l-98.479-73.566
	v-36.37C296.549,18.132,278.359,0,256,0S215.45,18.132,215.45,40.421V76.79l-98.479,73.566
	c-12.875,9.618-20.561,24.934-20.561,40.97V302.49l-41.016,14.87c-12.922,4.685-23.231,14.11-29.026,26.539
	c-5.774,12.383-6.371,26.268-1.683,39.098c7.587,20.762,27.334,33.683,48.323,33.681c5.816,0,11.732-0.994,17.506-3.087l5.896-2.137
	V460.8c0,28.231,23.044,51.2,51.371,51.2h216.436c28.326,0,51.371-22.969,51.371-51.2v-79.859
	c19.883-17.302,32.465-42.739,32.465-71.046c0-8.551-1.149-16.844-3.299-24.726l11.85-4.296
	c12.922-4.685,23.231-14.11,29.026-26.539C491.404,241.951,492.002,228.065,487.314,215.235z M231.618,40.421
	c0-13.373,10.937-24.253,24.382-24.253c13.445,0,24.382,10.879,24.382,24.253v25.974c-3.186-1.129-6.562-1.721-9.953-1.721H241.57
	c-3.391,0-6.767,0.593-9.952,1.721V40.421z M85.005,398.391c-18.248,6.615-38.496-2.78-45.134-20.943
	c-3.204-8.767-2.795-18.255,1.15-26.717c3.967-8.508,11.028-14.96,19.884-18.171l35.506-12.871v33.322
	c0,4.465,3.62,8.084,8.084,8.084s8.084-3.62,8.084-8.084v-44.643c0.003-0.14,0.003-0.28,0-0.421v-116.62
	c0-10.961,5.26-21.435,14.069-28.016l106.774-79.764c2.335-1.744,5.229-2.704,8.149-2.704h28.858c2.92,0,5.814,0.96,8.149,2.704
	l1.804,1.347v52.538c0,4.248-1.104,8.245-3.041,11.721c-5.409-5.564-12.978-9.026-21.342-9.026
	c-16.392,0-29.727,13.297-29.727,29.642s13.336,29.642,29.727,29.642s29.727-13.297,29.727-29.642c0-1.532-0.117-3.039-0.343-4.509
	c6.916-7.253,11.165-17.056,11.165-27.828v-40.46l88.803,66.339c8.81,6.581,14.069,17.054,14.069,28.016v6.794
	c-0.003,0.125-0.003,0.251,0,0.377v29c-13.632-7.588-29.333-11.918-46.026-11.918c-52.195,0-94.657,42.31-94.657,94.316
	c0,8.418,1.112,16.581,3.199,24.353L85.005,398.391z M256,177.853c4.175,0,8.203-0.632,11.995-1.804
	c-2.275,4.275-6.798,7.194-11.995,7.194c-7.477,0-13.56-6.044-13.56-13.474s6.083-13.474,13.56-13.474
	c3.553,0,6.79,1.365,9.21,3.593c-2.843,1.158-5.953,1.797-9.21,1.797c-4.465,0-8.084,3.62-8.084,8.084
	C247.916,174.233,251.535,177.853,256,177.853z M399.421,460.8c0,19.316-15.792,35.032-35.204,35.032H147.782
	c-19.412,0-35.204-15.716-35.204-35.032v-53.895c0-0.434-0.034-0.861-0.1-1.277l154.988-56.187
	c15.036,32.31,47.898,54.77,85.929,54.77c16.693,0,32.394-4.33,46.025-11.918V460.8H399.421z M353.395,388.042
	c-43.28,0-78.49-35.056-78.49-78.147s35.211-78.147,78.49-78.147s78.491,35.056,78.491,78.147S396.676,388.042,353.395,388.042z
	 M470.977,247.501c-3.967,8.508-11.028,14.96-19.884,18.171l-11.932,4.326c-5.626-11.957-13.701-22.558-23.574-31.149v-34.873
	l11.406-4.135c18.248-6.615,38.496,2.779,45.134,20.943C475.332,229.552,474.923,239.039,470.977,247.501z"/>
</svg>